<svg id="visual" viewBox="0 0 900 600" width="900" height="600" xmlns="http://www.w3.org/2000/svg" xmlns:xlink="http://www.w3.org/1999/xlink" version="1.1"><rect x="0" y="0" width="900" height="600" fill="#151515"></rect><defs><linearGradient id="grad1_0" x1="33.3%" y1="0%" x2="100%" y2="100%"><stop offset="20%" stop-color="#151515" stop-opacity="1"></stop><stop offset="80%" stop-color="#151515" stop-opacity="1"></stop></linearGradient></defs><defs><linearGradient id="grad2_0" x1="0%" y1="0%" x2="66.7%" y2="100%"><stop offset="20%" stop-color="#151515" stop-opacity="1"></stop><stop offset="80%" stop-color="#151515" stop-opacity="1"></stop></linearGradient></defs><g transform="translate(900, 0)"><path d="M0 351.5C-67.5 345.8 -135 340.1 -175.8 304.4C-216.6 268.8 -230.6 203.2 -255.5 147.5C-280.3 91.8 -315.9 45.9 -351.5 0L0 0Z" fill="#252525"></path></g><g transform="translate(0, 600)"><path d="M0 -351.5C49.4 -321.9 98.7 -292.3 154 -266.7C209.3 -241.1 270.5 -219.6 304.4 -175.8C338.4 -132 344.9 -66 351.5 0L0 0Z" fill="#252525"></path></g></svg>