<svg id="visual" viewBox="0 0 900 600" width="900" height="600" xmlns="http://www.w3.org/2000/svg" xmlns:xlink="http://www.w3.org/1999/xlink" version="1.1"><path d="M0 450L21.5 449.5C43 449 86 448 128.8 442.2C171.7 436.3 214.3 425.7 257.2 435.3C300 445 343 475 385.8 470.8C428.7 466.7 471.3 428.3 514.2 425.2C557 422 600 454 642.8 462C685.7 470 728.3 454 771.2 439.3C814 424.7 857 411.3 878.5 404.7L900 398L900 601L878.5 601C857 601 814 601 771.2 601C728.3 601 685.7 601 642.8 601C600 601 557 601 514.2 601C471.3 601 428.7 601 385.8 601C343 601 300 601 257.2 601C214.3 601 171.7 601 128.8 601C86 601 43 601 21.5 601L0 601Z" fill="#FA7268"></path></svg>